<mxfile host="Electron" agent="Mozilla/5.0 (Macintosh; Intel Mac OS X 10_15_7) AppleWebKit/537.36 (KHTML, like Gecko) draw.io/25.0.2 Chrome/128.0.6613.186 Electron/32.2.5 Safari/537.36" version="25.0.2">
  <diagram name="Page-1" id="3guPGcEpSeh1FLtNm0kl">
    <mxGraphModel dx="3227" dy="1113" grid="1" gridSize="10" guides="1" tooltips="1" connect="1" arrows="1" fold="1" page="1" pageScale="1" pageWidth="1169" pageHeight="1654" math="0" shadow="0">
      <root>
        <mxCell id="0" />
        <mxCell id="1" parent="0" />
        <mxCell id="wkJ69B1qPF9ireS1vmcp-74" style="vsdxID=5;fillColor=none;gradientColor=none;strokeColor=none;spacingTop=-3;spacingBottom=-3;spacingLeft=-3;spacingRight=-3;points=[];labelBackgroundColor=none;rounded=0;html=1;whiteSpace=wrap;movable=1;resizable=1;rotatable=1;deletable=1;editable=1;locked=0;connectable=1;" vertex="1" parent="1">
          <mxGeometry x="100" y="680" width="979" height="400" as="geometry" />
        </mxCell>
        <mxCell id="wkJ69B1qPF9ireS1vmcp-75" style="vsdxID=6;fillColor=none;gradientColor=none;shape=stencil(vVPREoIgEPwaHnFQmtJnq/9gEpWJxDkp7e+DoEnDerAZ3467PZa9YxHNu5q1HCWk06DOvBeFrhHdoyQRTc1BaBMhekA0LxXwCtS1Kdy5ZRZpo4u62RsG10dsR0Lu7pSRaPNMHB2WwckUwWPjKKUODi98tHWJAOEBMfEEA2aD6DAozbRQzYRcMqg4Nly4lKyalLqe8zZI+9dJ0YyUZGkU72bJl4ohX4azgpiA279toZRwNqutJfgSf+1kfioryPjtExO8DVYKKZ0/x/VPQ5qUMzM9PAA=);strokeColor=#5282ff;spacingTop=-3;spacingBottom=-3;spacingLeft=-3;spacingRight=-3;points=[];labelBackgroundColor=none;rounded=0;html=1;whiteSpace=wrap;" vertex="1" parent="wkJ69B1qPF9ireS1vmcp-74">
          <mxGeometry width="979" height="400" as="geometry" />
        </mxCell>
        <mxCell id="wkJ69B1qPF9ireS1vmcp-76" value="&lt;div style=&quot;font-size: 1px&quot;&gt;&lt;font style=&quot;font-size:22.58px;font-family:Arial;color:#000000;direction:ltr;letter-spacing:0px;line-height:120%;opacity:1&quot;&gt;Patroni&lt;br&gt;&lt;/font&gt;&lt;/div&gt;" style="verticalAlign=middle;align=center;overflow=width;vsdxID=7;fillColor=none;gradientColor=none;shape=stencil(nZBLDoAgDERP0z3SIyjew0SURgSD+Lu9kMZoXLhwN9O+tukAlrNpJg1SzDH4QW/URgNYgZTkjA4UkwJUgGXng+6DX1zLfmoymdXo17xh5zmRJ6Q42BWCfc2oJfdAr+Yv+AP9Cb7OJ3H/2JG1HNGz/84klThPVCc=);strokeColor=none;points=[];labelBackgroundColor=none;rounded=0;html=1;whiteSpace=wrap;" vertex="1" parent="wkJ69B1qPF9ireS1vmcp-74">
          <mxGeometry x="8.32011331444759" y="170" width="84.12559017941454" height="28" as="geometry" />
        </mxCell>
        <mxCell id="wkJ69B1qPF9ireS1vmcp-77" value="" style="shape=image;verticalLabelPosition=bottom;verticalAlign=top;imageAspect=0;aspect=fixed;image=data:image/svg+xml,PHN2ZyB4bWxucz0iaHR0cDovL3d3dy53My5vcmcvMjAwMC9zdmciIHdpZHRoPSIzMiIgaGVpZ2h0PSIzMiIgdmlld0JveD0iMCAwIDMyIDMyIiBmaWxsPSJub25lIj4mI3hhOzxwYXRoIGQ9Ik0wIDE2QzAgNy4xNjM0NCA3LjE2MzQ0IDAgMTYgMFYwQzI0LjgzNjYgMCAzMiA3LjE2MzQ0IDMyIDE2VjE2QzMyIDI0LjgzNjYgMjQuODM2NiAzMiAxNiAzMlYzMkM3LjE2MzQ0IDMyIDAgMjQuODM2NiAwIDE2VjE2WiIgZmlsbD0iIzUyODJGRiIvPiYjeGE7PHBhdGggZmlsbC1ydWxlPSJldmVub2RkIiBjbGlwLXJ1bGU9ImV2ZW5vZGQiIGQ9Ik0xMyA4SDE4QzIxLjMgOCAyNCAxMC43IDI0IDE0VjI0SDIwVjIwSDIyVjE5SDE4LjZDMTUuNSAxOSAxMyAxNi41IDEzIDEzLjRWOFpNMTkgMTdIMjFWMTVIMTlWMTdaTTEyIDkuMDk5OThWMTMuNEMxMiAxNi44IDE0LjYgMTkuNyAxOCAyMC4xVjIwLjZDMTggMjIgMTUuOCAyMy4xIDEzIDIzLjFDMTAuMiAyMy4xIDggMjIgOCAyMC42VjExLjZDOCAxMC4zIDkuNyA5LjI5OTk4IDEyIDkuMDk5OThaIiBmaWxsPSJ3aGl0ZSIvPiYjeGE7PC9zdmc+;" vertex="1" parent="wkJ69B1qPF9ireS1vmcp-74">
          <mxGeometry x="35.59159584513692" y="198" width="28.978281397544855" height="28.978281397544855" as="geometry" />
        </mxCell>
        <mxCell id="wkJ69B1qPF9ireS1vmcp-1" value="&lt;div style=&quot;font-size: 1px&quot;&gt;&lt;font style=&quot;font-size:22.58px;font-family:Arial;color:#000000;direction:ltr;letter-spacing:0px;line-height:120%;opacity:1&quot;&gt;Зона доступности 1&lt;br&gt;&lt;/font&gt;&lt;/div&gt;" style="verticalAlign=bottom;align=center;overflow=width;vsdxID=5;fillColor=#e3ebff;gradientColor=none;shape=stencil(vVNBDsIgEHwNRwxCjHqu+g9iaUtEaBa09fdSwdpi9dBDb8vOwOwsGcQyW/FaIEqsA3MRjcxdhdgBUSp1JUA6XyF2RCwrDIgSzE3n4VzzjtlVV3PvXmjDPdLdoOQRTrvtavNqnAKXw9mDELkBIhDJaxrJZIy/YRLfbjFvpcVgHHfS6JGu4lAK7GVwoXg5gmwjRP3VjoMpqQcm9tPKs0z0Y6crWcBHqt0PN8tJspXFfmNKdpaBH8tYwML/VPjiE6dCKhXSOMTT+PlWiC47PgE=);strokeColor=none;spacingTop=-3;spacingBottom=-3;spacingLeft=-3;spacingRight=-3;points=[];labelBackgroundColor=none;rounded=0;html=1;whiteSpace=wrap;container=0;" vertex="1" parent="1">
          <mxGeometry x="210" y="360" width="390.22" height="760" as="geometry" />
        </mxCell>
        <mxCell id="wkJ69B1qPF9ireS1vmcp-5" value="" style="shape=image;verticalLabelPosition=bottom;verticalAlign=top;imageAspect=0;aspect=fixed;image=data:image/svg+xml,PHN2ZyB4bWxucz0iaHR0cDovL3d3dy53My5vcmcvMjAwMC9zdmciIHdpZHRoPSIzMiIgaGVpZ2h0PSIzMiIgdmlld0JveD0iMCAwIDMyIDMyIiBmaWxsPSJub25lIj4mI3hhOzxwYXRoIGQ9Ik0wIDE2QzAgNy4xNjM0NCA3LjE2MzQ0IDAgMTYgMFYwQzI0LjgzNjYgMCAzMiA3LjE2MzQ0IDMyIDE2VjE2QzMyIDI0LjgzNjYgMjQuODM2NiAzMiAxNiAzMlYzMkM3LjE2MzQ0IDMyIDAgMjQuODM2NiAwIDE2VjE2WiIgZmlsbD0iIzUyODJGRiIvPiYjeGE7PHBhdGggZD0iTTExLjk5NSAyNEw3LjAwMDk4IDE3LjczOEw4Ljc4MTk4IDkuOTI3TDE2IDYuNDUzTDIzLjIxOCA5LjkyOEwyNC45OTkgMTcuNzM5TDIwLjAwNSAyNEgxMS45OTVaTTIwIDEzLjE5NkwxNS45OTkgMTAuODk5TDEyIDEzLjE5NlYxOC4xTDE2IDIwLjQwMUwyMCAxOC4xVjEzLjE5NlpNMTguNzggMTMuODk2SDE4Ljc4N0wxNiAxNS40OTlMMTMuMjE0IDEzLjg5NUgxMy4yMTlMMTUuOTk5IDEyLjI5OUwxOC43OCAxMy44OTZaIiBmaWxsPSJ3aGl0ZSIvPiYjeGE7PC9zdmc+;container=0;" vertex="1" parent="1">
          <mxGeometry x="475" y="470" width="28.571428571428573" height="28.571428571428573" as="geometry" />
        </mxCell>
        <mxCell id="wkJ69B1qPF9ireS1vmcp-6" style="vsdxID=5;fillColor=none;gradientColor=none;shape=stencil(vVPLEoIgFP0aljgEVuPa6j+YRGUica6U9vdhUKk4LWzG3X0cOPdcOIilTclrgShpDOiLaGVmSsQOiFJZlQKksRFiR8TSXIMoQN+qzOU175F9dNX3/obOnSP9CUoeLktIFL8KJ4flcLZN8NhtRJiDwxsf7VwhQHjAhniCDvNONhi04UbqakSuOBQCWy6cK16MWk0rRB2U/XRKVgMlSRwl+1nyhWI+s0+Xs4KYgNvPtlBKuJvVniX4En+9yfxWVpDx2yc2+Bosl0o5fw77U0PakjMzOz4B);strokeColor=#ff5958;spacingTop=-3;spacingBottom=-3;spacingLeft=-3;spacingRight=-3;points=[];labelBackgroundColor=none;rounded=0;html=1;whiteSpace=wrap;container=0;" vertex="1" parent="1">
          <mxGeometry x="410" y="460" width="130" height="100" as="geometry" />
        </mxCell>
        <mxCell id="wkJ69B1qPF9ireS1vmcp-7" value="&lt;div style=&quot;font-size: 1px&quot;&gt;&lt;font style=&quot;font-size:22.58px;font-family:Arial;color:#000000;direction:ltr;letter-spacing:0px;line-height:120%;opacity:1&quot;&gt;InsureTech&lt;/font&gt;&lt;/div&gt;&lt;div style=&quot;font-size: 1px&quot;&gt;&lt;font style=&quot;font-size:22.58px;font-family:Arial;color:#000000;direction:ltr;letter-spacing:0px;line-height:120%;opacity:1&quot;&gt;namespace&lt;/font&gt;&lt;/div&gt;" style="verticalAlign=bottom;align=center;overflow=width;vsdxID=6;fillColor=none;gradientColor=none;strokeColor=none;spacingTop=-3;spacingBottom=-3;spacingLeft=-3;spacingRight=-3;points=[];labelBackgroundColor=none;rounded=0;html=1;whiteSpace=wrap;container=0;" vertex="1" parent="1">
          <mxGeometry x="410" y="500" width="130" height="54" as="geometry" />
        </mxCell>
        <mxCell id="wkJ69B1qPF9ireS1vmcp-92" style="edgeStyle=orthogonalEdgeStyle;rounded=0;orthogonalLoop=1;jettySize=auto;html=1;entryX=0;entryY=0.476;entryDx=0;entryDy=0;entryPerimeter=0;" edge="1" parent="1" source="wkJ69B1qPF9ireS1vmcp-8" target="wkJ69B1qPF9ireS1vmcp-91">
          <mxGeometry relative="1" as="geometry">
            <mxPoint x="310" y="1209.090909090909" as="targetPoint" />
            <Array as="points">
              <mxPoint x="380" y="983" />
              <mxPoint x="380" y="1250" />
            </Array>
          </mxGeometry>
        </mxCell>
        <mxCell id="wkJ69B1qPF9ireS1vmcp-8" style="vsdxID=5;fillColor=none;gradientColor=none;shape=stencil(vVPLEoIgFP0aljgEVuPa6j+YRGUica6U9vdhUKk4LWzG3X0cOPdcOIilTclrgShpDOiLaGVmSsQOiFJZlQKksRFiR8TSXIMoQN+qzOU175F9dNX3/obOnSP9CUoeLktIFL8KJ4flcLZN8NhtRJiDwxsf7VwhQHjAhniCDvNONhi04UbqakSuOBQCWy6cK16MWk0rRB2U/XRKVgMlSRwl+1nyhWI+s0+Xs4KYgNvPtlBKuJvVniX4En+9yfxWVpDx2yc2+Bosl0o5fw77U0PakjMzOz4B);strokeColor=#ff5958;spacingTop=-3;spacingBottom=-3;spacingLeft=-3;spacingRight=-3;points=[];labelBackgroundColor=none;rounded=0;html=1;whiteSpace=wrap;container=0;" vertex="1" parent="1">
          <mxGeometry x="410" y="930" width="130" height="105.5" as="geometry" />
        </mxCell>
        <mxCell id="wkJ69B1qPF9ireS1vmcp-9" value="&lt;div style=&quot;font-size: 1px&quot;&gt;&lt;font style=&quot;font-size:22.58px;font-family:Arial;color:#000000;direction:ltr;letter-spacing:0px;line-height:120%;opacity:1&quot;&gt;PostgreSQL&lt;br&gt;&lt;/font&gt;&lt;/div&gt;&lt;div style=&quot;font-size: 1px&quot;&gt;&lt;font style=&quot;font-size:22.58px;font-family:Arial;color:#000000;direction:ltr;letter-spacing:0px;line-height:120%;opacity:1&quot;&gt;(master)&lt;/font&gt;&lt;/div&gt;" style="verticalAlign=bottom;align=center;overflow=width;vsdxID=6;fillColor=none;gradientColor=none;strokeColor=none;spacingTop=-3;spacingBottom=-3;spacingLeft=-3;spacingRight=-3;points=[];labelBackgroundColor=none;rounded=0;html=1;whiteSpace=wrap;container=0;" vertex="1" parent="1">
          <mxGeometry x="410" y="970" width="130" height="53.21" as="geometry" />
        </mxCell>
        <mxCell id="wkJ69B1qPF9ireS1vmcp-10" value="" style="shape=image;verticalLabelPosition=bottom;verticalAlign=top;imageAspect=0;aspect=fixed;image=data:image/svg+xml,PHN2ZyB4bWxucz0iaHR0cDovL3d3dy53My5vcmcvMjAwMC9zdmciIHdpZHRoPSIzMiIgaGVpZ2h0PSIzMiIgdmlld0JveD0iMCAwIDMyIDMyIiBmaWxsPSJub25lIj4mI3hhOzxwYXRoIGQ9Ik0wIDE2QzAgNy4xNjM0NCA3LjE2MzQ0IDAgMTYgMFYwQzI0LjgzNjYgMCAzMiA3LjE2MzQ0IDMyIDE2VjE2QzMyIDI0LjgzNjYgMjQuODM2NiAzMiAxNiAzMlYzMkM3LjE2MzQ0IDMyIDAgMjQuODM2NiAwIDE2VjE2WiIgZmlsbD0iIzUyODJGRiIvPiYjeGE7PHBhdGggZmlsbC1ydWxlPSJldmVub2RkIiBjbGlwLXJ1bGU9ImV2ZW5vZGQiIGQ9Ik0xMyA4SDE4QzIxLjMgOCAyNCAxMC43IDI0IDE0VjI0SDIwVjIwSDIyVjE5SDE4LjZDMTUuNSAxOSAxMyAxNi41IDEzIDEzLjRWOFpNMTkgMTdIMjFWMTVIMTlWMTdaTTEyIDkuMDk5OThWMTMuNEMxMiAxNi44IDE0LjYgMTkuNyAxOCAyMC4xVjIwLjZDMTggMjIgMTUuOCAyMy4xIDEzIDIzLjFDMTAuMiAyMy4xIDggMjIgOCAyMC42VjExLjZDOCAxMC4zIDkuNyA5LjI5OTk4IDEyIDkuMDk5OThaIiBmaWxsPSJ3aGl0ZSIvPiYjeGE7PC9zdmc+;container=0;" vertex="1" parent="1">
          <mxGeometry x="456.87" y="933.73" width="36.26923076923077" height="36.26923076923077" as="geometry" />
        </mxCell>
        <mxCell id="wkJ69B1qPF9ireS1vmcp-11" value="" style="aspect=fixed;sketch=0;html=1;dashed=0;whitespace=wrap;verticalLabelPosition=bottom;verticalAlign=top;fillColor=#2875E2;strokeColor=#ffffff;points=[[0.005,0.63,0],[0.1,0.2,0],[0.9,0.2,0],[0.5,0,0],[0.995,0.63,0],[0.72,0.99,0],[0.5,1,0],[0.28,0.99,0]];shape=mxgraph.kubernetes.icon2;prIcon=group;container=0;" vertex="1" parent="1">
          <mxGeometry x="684" y="30" width="50" height="48" as="geometry" />
        </mxCell>
        <mxCell id="wkJ69B1qPF9ireS1vmcp-60" style="edgeStyle=orthogonalEdgeStyle;rounded=0;orthogonalLoop=1;jettySize=auto;html=1;" edge="1" parent="1" source="wkJ69B1qPF9ireS1vmcp-12" target="wkJ69B1qPF9ireS1vmcp-21">
          <mxGeometry relative="1" as="geometry">
            <Array as="points">
              <mxPoint x="676" y="250" />
              <mxPoint x="400" y="250" />
            </Array>
          </mxGeometry>
        </mxCell>
        <mxCell id="wkJ69B1qPF9ireS1vmcp-85" value="active" style="edgeLabel;html=1;align=center;verticalAlign=middle;resizable=0;points=[];" vertex="1" connectable="0" parent="wkJ69B1qPF9ireS1vmcp-60">
          <mxGeometry x="-0.1159" relative="1" as="geometry">
            <mxPoint as="offset" />
          </mxGeometry>
        </mxCell>
        <mxCell id="wkJ69B1qPF9ireS1vmcp-12" style="vsdxID=5;fillColor=none;gradientColor=none;shape=stencil(vVPLEoIgFP0aljgEVuPa6j+YRGUica6U9vdhUKk4LWzG3X0cOPdcOIilTclrgShpDOiLaGVmSsQOiFJZlQKksRFiR8TSXIMoQN+qzOU175F9dNX3/obOnSP9CUoeLktIFL8KJ4flcLZN8NhtRJiDwxsf7VwhQHjAhniCDvNONhi04UbqakSuOBQCWy6cK16MWk0rRB2U/XRKVgMlSRwl+1nyhWI+s0+Xs4KYgNvPtlBKuJvVniX4En+9yfxWVpDx2yc2+Bosl0o5fw77U0PakjMzOz4B);strokeColor=#ff5958;spacingTop=-3;spacingBottom=-3;spacingLeft=-3;spacingRight=-3;points=[];labelBackgroundColor=none;rounded=0;html=1;whiteSpace=wrap;container=0;" vertex="1" parent="1">
          <mxGeometry x="600" y="20" width="152" height="130" as="geometry" />
        </mxCell>
        <mxCell id="wkJ69B1qPF9ireS1vmcp-13" value="&lt;div style=&quot;font-size: 1px&quot;&gt;&lt;font style=&quot;font-size:22.58px;font-family:Arial;color:#000000;direction:ltr;letter-spacing:0px;line-height:120%;opacity:1&quot;&gt;Браузер&amp;nbsp;&lt;/font&gt;&lt;/div&gt;&lt;div style=&quot;font-size: 1px&quot;&gt;&lt;font style=&quot;font-size:22.58px;font-family:Arial;color:#000000;direction:ltr;letter-spacing:0px;line-height:120%;opacity:1&quot;&gt;пользователя&lt;/font&gt;&lt;/div&gt;" style="verticalAlign=bottom;align=center;overflow=width;vsdxID=6;fillColor=none;gradientColor=none;strokeColor=none;spacingTop=-3;spacingBottom=-3;spacingLeft=-3;spacingRight=-3;points=[];labelBackgroundColor=none;rounded=0;html=1;whiteSpace=wrap;container=0;" vertex="1" parent="1">
          <mxGeometry x="600" y="87" width="152" height="53" as="geometry" />
        </mxCell>
        <mxCell id="wkJ69B1qPF9ireS1vmcp-18" value="" style="group" vertex="1" connectable="0" parent="1">
          <mxGeometry x="240" y="440" width="320" height="133.71" as="geometry" />
        </mxCell>
        <mxCell id="wkJ69B1qPF9ireS1vmcp-19" value="" style="shape=image;verticalLabelPosition=bottom;verticalAlign=top;imageAspect=0;aspect=fixed;image=data:image/svg+xml,PHN2ZyB4bWxucz0iaHR0cDovL3d3dy53My5vcmcvMjAwMC9zdmciIHdpZHRoPSIzMiIgaGVpZ2h0PSIzMiIgdmlld0JveD0iMCAwIDMyIDMyIiBmaWxsPSJub25lIj4mI3hhOzxwYXRoIGQ9Ik0wIDE2QzAgNy4xNjM0NCA3LjE2MzQ0IDAgMTYgMFYwQzI0LjgzNjYgMCAzMiA3LjE2MzQ0IDMyIDE2VjE2QzMyIDI0LjgzNjYgMjQuODM2NiAzMiAxNiAzMlYzMkM3LjE2MzQ0IDMyIDAgMjQuODM2NiAwIDE2VjE2WiIgZmlsbD0iIzUyODJGRiIvPiYjeGE7PHBhdGggZD0iTTExLjk5NSAyNEw3LjAwMDk4IDE3LjczOEw4Ljc4MTk4IDkuOTI3TDE2IDYuNDUzTDIzLjIxOCA5LjkyOEwyNC45OTkgMTcuNzM5TDIwLjAwNSAyNEgxMS45OTVaTTIwIDEzLjE5NkwxNS45OTkgMTAuODk5TDEyIDEzLjE5NlYxOC4xTDE2IDIwLjQwMUwyMCAxOC4xVjEzLjE5NlpNMTguNzggMTMuODk2SDE4Ljc4N0wxNiAxNS40OTlMMTMuMjE0IDEzLjg5NUgxMy4yMTlMMTUuOTk5IDEyLjI5OUwxOC43OCAxMy44OTZaIiBmaWxsPSJ3aGl0ZSIvPiYjeGE7PC9zdmc+;container=0;" vertex="1" parent="wkJ69B1qPF9ireS1vmcp-18">
          <mxGeometry x="43.99515151515152" y="86.14999999999996" width="27.69545454545455" height="27.69545454545455" as="geometry" />
        </mxCell>
        <mxCell id="wkJ69B1qPF9ireS1vmcp-20" value="&lt;div style=&quot;font-size: 1px&quot;&gt;&lt;font style=&quot;font-size:22.58px;font-family:Arial;color:#000000;direction:ltr;letter-spacing:0px;line-height:120%;opacity:1&quot;&gt;Kubernetes&lt;br&gt;&lt;/font&gt;&lt;/div&gt;&lt;div style=&quot;font-size: 1px&quot;&gt;&lt;font style=&quot;font-size:22.58px;font-family:Arial;color:#000000;direction:ltr;letter-spacing:0px;line-height:120%;opacity:1&quot;&gt;cluster 1&lt;/font&gt;&lt;/div&gt;" style="verticalAlign=middle;align=center;overflow=width;vsdxID=7;fillColor=none;gradientColor=none;shape=stencil(nZBLDoAgDERP0z3SIyjew0SURgSD+Lu9kMZoXLhwN9O+tukAlrNpJg1SzDH4QW/URgNYgZTkjA4UkwJUgGXng+6DX1zLfmoymdXo17xh5zmRJ6Q42BWCfc2oJfdAr+Yv+AP9Cb7OJ3H/2JG1HNGz/84klThPVCc=);strokeColor=none;points=[];labelBackgroundColor=none;rounded=0;html=1;whiteSpace=wrap;container=0;" vertex="1" parent="wkJ69B1qPF9ireS1vmcp-18">
          <mxGeometry x="9.696969696969697" width="116.36363636363637" height="86.13999999999999" as="geometry" />
        </mxCell>
        <mxCell id="wkJ69B1qPF9ireS1vmcp-21" style="vsdxID=6;fillColor=none;gradientColor=none;shape=stencil(vVNdD4IgFP01POIQms1nq//BEpVF4q6U9u/DoFJxPdjm2/04cO65cBDL2oo3AlHSGtAX0cncVIgdEKWyrgRIYyPEjohlhQZRgr7VucsbPiCH6Krvww29O0eGE5Q8XJaSaPcqnByWw9k2wWNZRFMHhzc+SlwhQHhATDxBj3kvWwzacCN1PSFXHEqBLRcuFC8nrbYTognKfjol65GSNIn28SL5SjGf2efL2UBMwO1nWykl3M1mzxJ8ib/eZHkrG8j47RMbfA1WSKWcP8f9uSFtyZmZHZ8=);strokeColor=#5282ff;spacingTop=-3;spacingBottom=-3;spacingLeft=-3;spacingRight=-3;points=[];labelBackgroundColor=none;rounded=0;html=1;whiteSpace=wrap;container=0;" vertex="1" parent="1">
          <mxGeometry x="245.11" y="440" width="320" height="133.70999999999998" as="geometry" />
        </mxCell>
        <mxCell id="wkJ69B1qPF9ireS1vmcp-22" value="&lt;div style=&quot;font-size: 1px&quot;&gt;&lt;font style=&quot;font-size:22.58px;font-family:Arial;color:#000000;direction:ltr;letter-spacing:0px;line-height:120%;opacity:1&quot;&gt;Зона доступности 2&lt;br&gt;&lt;/font&gt;&lt;/div&gt;" style="verticalAlign=bottom;align=center;overflow=width;vsdxID=5;fillColor=#e3ebff;gradientColor=none;shape=stencil(vVNBDsIgEHwNRwxCjHqu+g9iaUtEaBa09fdSwdpi9dBDb8vOwOwsGcQyW/FaIEqsA3MRjcxdhdgBUSp1JUA6XyF2RCwrDIgSzE3n4VzzjtlVV3PvXmjDPdLdoOQRTrvtavNqnAKXw9mDELkBIhDJaxrJZIy/YRLfbjFvpcVgHHfS6JGu4lAK7GVwoXg5gmwjRP3VjoMpqQcm9tPKs0z0Y6crWcBHqt0PN8tJspXFfmNKdpaBH8tYwML/VPjiE6dCKhXSOMTT+PlWiC47PgE=);strokeColor=none;spacingTop=-3;spacingBottom=-3;spacingLeft=-3;spacingRight=-3;points=[];labelBackgroundColor=none;rounded=0;html=1;whiteSpace=wrap;container=0;" vertex="1" parent="1">
          <mxGeometry x="724.89" y="360" width="390.22" height="760" as="geometry" />
        </mxCell>
        <mxCell id="wkJ69B1qPF9ireS1vmcp-25" value="" style="shape=image;verticalLabelPosition=bottom;verticalAlign=top;imageAspect=0;aspect=fixed;image=data:image/svg+xml,PHN2ZyB4bWxucz0iaHR0cDovL3d3dy53My5vcmcvMjAwMC9zdmciIHdpZHRoPSIzMiIgaGVpZ2h0PSIzMiIgdmlld0JveD0iMCAwIDMyIDMyIiBmaWxsPSJub25lIj4mI3hhOzxwYXRoIGQ9Ik0wIDE2QzAgNy4xNjM0NCA3LjE2MzQ0IDAgMTYgMFYwQzI0LjgzNjYgMCAzMiA3LjE2MzQ0IDMyIDE2VjE2QzMyIDI0LjgzNjYgMjQuODM2NiAzMiAxNiAzMlYzMkM3LjE2MzQ0IDMyIDAgMjQuODM2NiAwIDE2VjE2WiIgZmlsbD0iIzUyODJGRiIvPiYjeGE7PHBhdGggZD0iTTExLjk5NSAyNEw3LjAwMDk4IDE3LjczOEw4Ljc4MTk4IDkuOTI3TDE2IDYuNDUzTDIzLjIxOCA5LjkyOEwyNC45OTkgMTcuNzM5TDIwLjAwNSAyNEgxMS45OTVaTTIwIDEzLjE5NkwxNS45OTkgMTAuODk5TDEyIDEzLjE5NlYxOC4xTDE2IDIwLjQwMUwyMCAxOC4xVjEzLjE5NlpNMTguNzggMTMuODk2SDE4Ljc4N0wxNiAxNS40OTlMMTMuMjE0IDEzLjg5NUgxMy4yMTlMMTUuOTk5IDEyLjI5OUwxOC43OCAxMy44OTZaIiBmaWxsPSJ3aGl0ZSIvPiYjeGE7PC9zdmc+;container=0;" vertex="1" parent="1">
          <mxGeometry x="995" y="470" width="28.571428571428573" height="28.571428571428573" as="geometry" />
        </mxCell>
        <mxCell id="wkJ69B1qPF9ireS1vmcp-26" style="vsdxID=5;fillColor=none;gradientColor=none;shape=stencil(vVPLEoIgFP0aljgEVuPa6j+YRGUica6U9vdhUKk4LWzG3X0cOPdcOIilTclrgShpDOiLaGVmSsQOiFJZlQKksRFiR8TSXIMoQN+qzOU175F9dNX3/obOnSP9CUoeLktIFL8KJ4flcLZN8NhtRJiDwxsf7VwhQHjAhniCDvNONhi04UbqakSuOBQCWy6cK16MWk0rRB2U/XRKVgMlSRwl+1nyhWI+s0+Xs4KYgNvPtlBKuJvVniX4En+9yfxWVpDx2yc2+Bosl0o5fw77U0PakjMzOz4B);strokeColor=#ff5958;spacingTop=-3;spacingBottom=-3;spacingLeft=-3;spacingRight=-3;points=[];labelBackgroundColor=none;rounded=0;html=1;whiteSpace=wrap;container=0;" vertex="1" parent="1">
          <mxGeometry x="930" y="460" width="130" height="100" as="geometry" />
        </mxCell>
        <mxCell id="wkJ69B1qPF9ireS1vmcp-27" value="&lt;div style=&quot;font-size: 1px&quot;&gt;&lt;font style=&quot;font-size:22.58px;font-family:Arial;color:#000000;direction:ltr;letter-spacing:0px;line-height:120%;opacity:1&quot;&gt;InsureTech&lt;/font&gt;&lt;/div&gt;&lt;div style=&quot;font-size: 1px&quot;&gt;&lt;font style=&quot;font-size:22.58px;font-family:Arial;color:#000000;direction:ltr;letter-spacing:0px;line-height:120%;opacity:1&quot;&gt;namespace&lt;/font&gt;&lt;/div&gt;" style="verticalAlign=bottom;align=center;overflow=width;vsdxID=6;fillColor=none;gradientColor=none;strokeColor=none;spacingTop=-3;spacingBottom=-3;spacingLeft=-3;spacingRight=-3;points=[];labelBackgroundColor=none;rounded=0;html=1;whiteSpace=wrap;container=0;" vertex="1" parent="1">
          <mxGeometry x="930" y="500" width="130" height="54" as="geometry" />
        </mxCell>
        <mxCell id="wkJ69B1qPF9ireS1vmcp-28" style="vsdxID=5;fillColor=none;gradientColor=none;shape=stencil(vVPLEoIgFP0aljgEVuPa6j+YRGUica6U9vdhUKk4LWzG3X0cOPdcOIilTclrgShpDOiLaGVmSsQOiFJZlQKksRFiR8TSXIMoQN+qzOU175F9dNX3/obOnSP9CUoeLktIFL8KJ4flcLZN8NhtRJiDwxsf7VwhQHjAhniCDvNONhi04UbqakSuOBQCWy6cK16MWk0rRB2U/XRKVgMlSRwl+1nyhWI+s0+Xs4KYgNvPtlBKuJvVniX4En+9yfxWVpDx2yc2+Bosl0o5fw77U0PakjMzOz4B);strokeColor=#ff5958;spacingTop=-3;spacingBottom=-3;spacingLeft=-3;spacingRight=-3;points=[];labelBackgroundColor=none;rounded=0;html=1;whiteSpace=wrap;container=0;" vertex="1" parent="1">
          <mxGeometry x="930" y="930" width="130" height="105.5" as="geometry" />
        </mxCell>
        <mxCell id="wkJ69B1qPF9ireS1vmcp-29" value="&lt;div style=&quot;font-size: 1px&quot;&gt;&lt;font style=&quot;font-size:22.58px;font-family:Arial;color:#000000;direction:ltr;letter-spacing:0px;line-height:120%;opacity:1&quot;&gt;PostgreSQL&lt;br&gt;&lt;/font&gt;&lt;/div&gt;&lt;div style=&quot;font-size: 1px&quot;&gt;&lt;font style=&quot;font-size:22.58px;font-family:Arial;color:#000000;direction:ltr;letter-spacing:0px;line-height:120%;opacity:1&quot;&gt;(master)&lt;/font&gt;&lt;/div&gt;" style="verticalAlign=bottom;align=center;overflow=width;vsdxID=6;fillColor=none;gradientColor=none;strokeColor=none;spacingTop=-3;spacingBottom=-3;spacingLeft=-3;spacingRight=-3;points=[];labelBackgroundColor=none;rounded=0;html=1;whiteSpace=wrap;container=0;" vertex="1" parent="1">
          <mxGeometry x="930" y="975" width="130" height="53.21" as="geometry" />
        </mxCell>
        <mxCell id="wkJ69B1qPF9ireS1vmcp-30" value="" style="shape=image;verticalLabelPosition=bottom;verticalAlign=top;imageAspect=0;aspect=fixed;image=data:image/svg+xml,PHN2ZyB4bWxucz0iaHR0cDovL3d3dy53My5vcmcvMjAwMC9zdmciIHdpZHRoPSIzMiIgaGVpZ2h0PSIzMiIgdmlld0JveD0iMCAwIDMyIDMyIiBmaWxsPSJub25lIj4mI3hhOzxwYXRoIGQ9Ik0wIDE2QzAgNy4xNjM0NCA3LjE2MzQ0IDAgMTYgMFYwQzI0LjgzNjYgMCAzMiA3LjE2MzQ0IDMyIDE2VjE2QzMyIDI0LjgzNjYgMjQuODM2NiAzMiAxNiAzMlYzMkM3LjE2MzQ0IDMyIDAgMjQuODM2NiAwIDE2VjE2WiIgZmlsbD0iIzUyODJGRiIvPiYjeGE7PHBhdGggZmlsbC1ydWxlPSJldmVub2RkIiBjbGlwLXJ1bGU9ImV2ZW5vZGQiIGQ9Ik0xMyA4SDE4QzIxLjMgOCAyNCAxMC43IDI0IDE0VjI0SDIwVjIwSDIyVjE5SDE4LjZDMTUuNSAxOSAxMyAxNi41IDEzIDEzLjRWOFpNMTkgMTdIMjFWMTVIMTlWMTdaTTEyIDkuMDk5OThWMTMuNEMxMiAxNi44IDE0LjYgMTkuNyAxOCAyMC4xVjIwLjZDMTggMjIgMTUuOCAyMy4xIDEzIDIzLjFDMTAuMiAyMy4xIDggMjIgOCAyMC42VjExLjZDOCAxMC4zIDkuNyA5LjI5OTk4IDEyIDkuMDk5OThaIiBmaWxsPSJ3aGl0ZSIvPiYjeGE7PC9zdmc+;container=0;" vertex="1" parent="1">
          <mxGeometry x="974.5" y="934" width="36.26923076923077" height="36.26923076923077" as="geometry" />
        </mxCell>
        <mxCell id="wkJ69B1qPF9ireS1vmcp-35" value="" style="group" vertex="1" connectable="0" parent="1">
          <mxGeometry x="760" y="440" width="320" height="133.71" as="geometry" />
        </mxCell>
        <mxCell id="wkJ69B1qPF9ireS1vmcp-36" value="" style="shape=image;verticalLabelPosition=bottom;verticalAlign=top;imageAspect=0;aspect=fixed;image=data:image/svg+xml,PHN2ZyB4bWxucz0iaHR0cDovL3d3dy53My5vcmcvMjAwMC9zdmciIHdpZHRoPSIzMiIgaGVpZ2h0PSIzMiIgdmlld0JveD0iMCAwIDMyIDMyIiBmaWxsPSJub25lIj4mI3hhOzxwYXRoIGQ9Ik0wIDE2QzAgNy4xNjM0NCA3LjE2MzQ0IDAgMTYgMFYwQzI0LjgzNjYgMCAzMiA3LjE2MzQ0IDMyIDE2VjE2QzMyIDI0LjgzNjYgMjQuODM2NiAzMiAxNiAzMlYzMkM3LjE2MzQ0IDMyIDAgMjQuODM2NiAwIDE2VjE2WiIgZmlsbD0iIzUyODJGRiIvPiYjeGE7PHBhdGggZD0iTTExLjk5NSAyNEw3LjAwMDk4IDE3LjczOEw4Ljc4MTk4IDkuOTI3TDE2IDYuNDUzTDIzLjIxOCA5LjkyOEwyNC45OTkgMTcuNzM5TDIwLjAwNSAyNEgxMS45OTVaTTIwIDEzLjE5NkwxNS45OTkgMTAuODk5TDEyIDEzLjE5NlYxOC4xTDE2IDIwLjQwMUwyMCAxOC4xVjEzLjE5NlpNMTguNzggMTMuODk2SDE4Ljc4N0wxNiAxNS40OTlMMTMuMjE0IDEzLjg5NUgxMy4yMTlMMTUuOTk5IDEyLjI5OUwxOC43OCAxMy44OTZaIiBmaWxsPSJ3aGl0ZSIvPiYjeGE7PC9zdmc+;container=0;" vertex="1" parent="wkJ69B1qPF9ireS1vmcp-35">
          <mxGeometry x="43.99515151515152" y="86.14999999999996" width="27.69545454545455" height="27.69545454545455" as="geometry" />
        </mxCell>
        <mxCell id="wkJ69B1qPF9ireS1vmcp-37" value="&lt;div style=&quot;font-size: 1px&quot;&gt;&lt;font style=&quot;font-size:22.58px;font-family:Arial;color:#000000;direction:ltr;letter-spacing:0px;line-height:120%;opacity:1&quot;&gt;Kubernetes&lt;br&gt;&lt;/font&gt;&lt;/div&gt;&lt;div style=&quot;font-size: 1px&quot;&gt;&lt;font style=&quot;font-size:22.58px;font-family:Arial;color:#000000;direction:ltr;letter-spacing:0px;line-height:120%;opacity:1&quot;&gt;cluster 2&lt;/font&gt;&lt;/div&gt;" style="verticalAlign=middle;align=center;overflow=width;vsdxID=7;fillColor=none;gradientColor=none;shape=stencil(nZBLDoAgDERP0z3SIyjew0SURgSD+Lu9kMZoXLhwN9O+tukAlrNpJg1SzDH4QW/URgNYgZTkjA4UkwJUgGXng+6DX1zLfmoymdXo17xh5zmRJ6Q42BWCfc2oJfdAr+Yv+AP9Cb7OJ3H/2JG1HNGz/84klThPVCc=);strokeColor=none;points=[];labelBackgroundColor=none;rounded=0;html=1;whiteSpace=wrap;container=0;" vertex="1" parent="wkJ69B1qPF9ireS1vmcp-35">
          <mxGeometry x="9.696969696969697" width="116.36363636363637" height="86.13999999999999" as="geometry" />
        </mxCell>
        <mxCell id="wkJ69B1qPF9ireS1vmcp-38" style="vsdxID=6;fillColor=none;gradientColor=none;shape=stencil(vVNdD4IgFP01POIQms1nq//BEpVF4q6U9u/DoFJxPdjm2/04cO65cBDL2oo3AlHSGtAX0cncVIgdEKWyrgRIYyPEjohlhQZRgr7VucsbPiCH6Krvww29O0eGE5Q8XJaSaPcqnByWw9k2wWNZRFMHhzc+SlwhQHhATDxBj3kvWwzacCN1PSFXHEqBLRcuFC8nrbYTognKfjol65GSNIn28SL5SjGf2efL2UBMwO1nWykl3M1mzxJ8ib/eZHkrG8j47RMbfA1WSKWcP8f9uSFtyZmZHZ8=);strokeColor=#5282ff;spacingTop=-3;spacingBottom=-3;spacingLeft=-3;spacingRight=-3;points=[];labelBackgroundColor=none;rounded=0;html=1;whiteSpace=wrap;container=0;" vertex="1" parent="1">
          <mxGeometry x="760" y="443.14" width="320" height="133.70999999999998" as="geometry" />
        </mxCell>
        <mxCell id="wkJ69B1qPF9ireS1vmcp-40" value="1. Фейловер стратегия Active-Active,&lt;div&gt;т.к. требуется очень высокая доступность 99.9%&lt;/div&gt;&lt;div&gt;2. Используется 2 зоны доступности (георезервирование)&lt;/div&gt;&lt;div&gt;на случай аварий в одном их ЦОД&lt;/div&gt;&lt;div&gt;3. 2 независимых кластера с GSLB, для обеспечения надежной&lt;/div&gt;&lt;div&gt;работы в разных часовых поясах&lt;/div&gt;&lt;div&gt;4. Резервное копирование БД на бэкап сервер&lt;/div&gt;&lt;div&gt;5. Шардирование не используется&lt;/div&gt;" style="text;html=1;align=left;verticalAlign=middle;resizable=0;points=[];autosize=1;strokeColor=none;fillColor=none;" vertex="1" parent="1">
          <mxGeometry x="-55" y="78" width="390" height="130" as="geometry" />
        </mxCell>
        <mxCell id="wkJ69B1qPF9ireS1vmcp-50" style="vsdxID=5;fillColor=none;gradientColor=none;shape=stencil(vVPLEoIgFP0aljgEVuPa6j+YRGUica6U9vdhUKk4LWzG3X0cOPdcOIilTclrgShpDOiLaGVmSsQOiFJZlQKksRFiR8TSXIMoQN+qzOU175F9dNX3/obOnSP9CUoeLktIFL8KJ4flcLZN8NhtRJiDwxsf7VwhQHjAhniCDvNONhi04UbqakSuOBQCWy6cK16MWk0rRB2U/XRKVgMlSRwl+1nyhWI+s0+Xs4KYgNvPtlBKuJvVniX4En+9yfxWVpDx2yc2+Bosl0o5fw77U0PakjMzOz4B);strokeColor=#ff5958;spacingTop=-3;spacingBottom=-3;spacingLeft=-3;spacingRight=-3;points=[];labelBackgroundColor=none;rounded=0;html=1;whiteSpace=wrap;container=0;" vertex="1" parent="1">
          <mxGeometry x="410" y="727.25" width="130" height="105.5" as="geometry" />
        </mxCell>
        <mxCell id="wkJ69B1qPF9ireS1vmcp-51" style="vsdxID=5;fillColor=none;gradientColor=none;shape=stencil(vVPLEoIgFP0aljgEVuPa6j+YRGUica6U9vdhUKk4LWzG3X0cOPdcOIilTclrgShpDOiLaGVmSsQOiFJZlQKksRFiR8TSXIMoQN+qzOU175F9dNX3/obOnSP9CUoeLktIFL8KJ4flcLZN8NhtRJiDwxsf7VwhQHjAhniCDvNONhi04UbqakSuOBQCWy6cK16MWk0rRB2U/XRKVgMlSRwl+1nyhWI+s0+Xs4KYgNvPtlBKuJvVniX4En+9yfxWVpDx2yc2+Bosl0o5fw77U0PakjMzOz4B);strokeColor=#ff5958;spacingTop=-3;spacingBottom=-3;spacingLeft=-3;spacingRight=-3;points=[];labelBackgroundColor=none;rounded=0;html=1;whiteSpace=wrap;container=0;" vertex="1" parent="1">
          <mxGeometry x="927.63" y="722" width="130" height="105.5" as="geometry" />
        </mxCell>
        <mxCell id="wkJ69B1qPF9ireS1vmcp-52" value="" style="shape=image;verticalLabelPosition=bottom;verticalAlign=top;imageAspect=0;aspect=fixed;image=data:image/svg+xml,PHN2ZyB4bWxucz0iaHR0cDovL3d3dy53My5vcmcvMjAwMC9zdmciIHdpZHRoPSIzMiIgaGVpZ2h0PSIzMiIgdmlld0JveD0iMCAwIDMyIDMyIiBmaWxsPSJub25lIj4mI3hhOzxwYXRoIGQ9Ik0wIDE2QzAgNy4xNjM0NCA3LjE2MzQ0IDAgMTYgMFYwQzI0LjgzNjYgMCAzMiA3LjE2MzQ0IDMyIDE2VjE2QzMyIDI0LjgzNjYgMjQuODM2NiAzMiAxNiAzMlYzMkM3LjE2MzQ0IDMyIDAgMjQuODM2NiAwIDE2VjE2WiIgZmlsbD0iIzUyODJGRiIvPiYjeGE7PHBhdGggZD0iTTE3IDE3SDE5LjNDMTkuNyAxNy42IDIwLjMgMTggMjEgMThDMjIuMSAxOCAyMyAxNy4xIDIzIDE2QzIzIDE0LjkgMjIuMSAxNCAyMSAxNEMyMC4zIDE0IDE5LjYgMTQuNCAxOS4zIDE1SDE3VjExSDE5LjNDMTkuNyAxMS42IDIwLjMgMTIgMjEgMTJDMjIuMSAxMiAyMyAxMS4xIDIzIDEwQzIzIDguOSAyMi4xIDggMjEgOEMyMC4zIDggMTkuNiA4LjQgMTkuMyA5SDE3QzE1LjkgOSAxNSA5LjkgMTUgMTFWMTUuM0wxMCAxMlYxNUg3VjE3SDEwVjIwTDE1IDE2LjdWMjFDMTUgMjIuMSAxNS45IDIzIDE3IDIzSDE5LjNDMTkuNyAyMy42IDIwLjMgMjQgMjEgMjRDMjIuMSAyNCAyMyAyMy4xIDIzIDIyQzIzIDIwLjkgMjIuMSAyMCAyMSAyMEMyMC4zIDIwIDE5LjYgMjAuNCAxOS4zIDIxSDE3VjE3WiIgZmlsbD0id2hpdGUiLz4mI3hhOzwvc3ZnPg==;" vertex="1" parent="1">
          <mxGeometry x="456.87" y="740" width="32" height="32" as="geometry" />
        </mxCell>
        <mxCell id="wkJ69B1qPF9ireS1vmcp-53" value="" style="shape=image;verticalLabelPosition=bottom;verticalAlign=top;imageAspect=0;aspect=fixed;image=data:image/svg+xml,PHN2ZyB4bWxucz0iaHR0cDovL3d3dy53My5vcmcvMjAwMC9zdmciIHdpZHRoPSIzMiIgaGVpZ2h0PSIzMiIgdmlld0JveD0iMCAwIDMyIDMyIiBmaWxsPSJub25lIj4mI3hhOzxwYXRoIGQ9Ik0wIDE2QzAgNy4xNjM0NCA3LjE2MzQ0IDAgMTYgMFYwQzI0LjgzNjYgMCAzMiA3LjE2MzQ0IDMyIDE2VjE2QzMyIDI0LjgzNjYgMjQuODM2NiAzMiAxNiAzMlYzMkM3LjE2MzQ0IDMyIDAgMjQuODM2NiAwIDE2VjE2WiIgZmlsbD0iIzUyODJGRiIvPiYjeGE7PHBhdGggZD0iTTE3IDE3SDE5LjNDMTkuNyAxNy42IDIwLjMgMTggMjEgMThDMjIuMSAxOCAyMyAxNy4xIDIzIDE2QzIzIDE0LjkgMjIuMSAxNCAyMSAxNEMyMC4zIDE0IDE5LjYgMTQuNCAxOS4zIDE1SDE3VjExSDE5LjNDMTkuNyAxMS42IDIwLjMgMTIgMjEgMTJDMjIuMSAxMiAyMyAxMS4xIDIzIDEwQzIzIDguOSAyMi4xIDggMjEgOEMyMC4zIDggMTkuNiA4LjQgMTkuMyA5SDE3QzE1LjkgOSAxNSA5LjkgMTUgMTFWMTUuM0wxMCAxMlYxNUg3VjE3SDEwVjIwTDE1IDE2LjdWMjFDMTUgMjIuMSAxNS45IDIzIDE3IDIzSDE5LjNDMTkuNyAyMy42IDIwLjMgMjQgMjEgMjRDMjIuMSAyNCAyMyAyMy4xIDIzIDIyQzIzIDIwLjkgMjIuMSAyMCAyMSAyMEMyMC4zIDIwIDE5LjYgMjAuNCAxOS4zIDIxSDE3VjE3WiIgZmlsbD0id2hpdGUiLz4mI3hhOzwvc3ZnPg==;" vertex="1" parent="1">
          <mxGeometry x="976.63" y="740" width="32" height="32" as="geometry" />
        </mxCell>
        <mxCell id="wkJ69B1qPF9ireS1vmcp-54" value="&lt;div style=&quot;&quot;&gt;&lt;font face=&quot;Arial&quot;&gt;&lt;span style=&quot;font-size: 22.58px;&quot;&gt;GSLB&lt;/span&gt;&lt;/font&gt;&lt;/div&gt;" style="verticalAlign=middle;align=center;overflow=width;vsdxID=5;fillColor=#e3ebff;gradientColor=none;shape=stencil(vVNBDsIgEHwNRwxCjHqu+g9iaUtEaBa09fdSwdpi9dBDb8vOwOwsGcQyW/FaIEqsA3MRjcxdhdgBUSp1JUA6XyF2RCwrDIgSzE3n4VzzjtlVV3PvXmjDPdLdoOQRTrvtavNqnAKXw9mDELkBIhDJaxrJZIy/YRLfbjFvpcVgHHfS6JGu4lAK7GVwoXg5gmwjRP3VjoMpqQcm9tPKs0z0Y6crWcBHqt0PN8tJspXFfmNKdpaBH8tYwML/VPjiE6dCKhXSOMTT+PlWiC47PgE=);strokeColor=none;spacingTop=-3;spacingBottom=-3;spacingLeft=-3;spacingRight=-3;points=[];labelBackgroundColor=none;rounded=0;html=1;whiteSpace=wrap;" vertex="1" parent="1">
          <mxGeometry x="880" y="44" width="220" height="84" as="geometry" />
        </mxCell>
        <mxCell id="wkJ69B1qPF9ireS1vmcp-56" value="" style="shape=image;verticalLabelPosition=bottom;verticalAlign=top;imageAspect=0;aspect=fixed;image=data:image/svg+xml,PHN2ZyB4bWxucz0iaHR0cDovL3d3dy53My5vcmcvMjAwMC9zdmciIHdpZHRoPSIzMiIgaGVpZ2h0PSIzMiIgdmlld0JveD0iMCAwIDMyIDMyIiBmaWxsPSJub25lIj4mI3hhOzxwYXRoIGQ9Ik0wIDE2QzAgNy4xNjM0NCA3LjE2MzQ0IDAgMTYgMFYwQzI0LjgzNjYgMCAzMiA3LjE2MzQ0IDMyIDE2VjE2QzMyIDI0LjgzNjYgMjQuODM2NiAzMiAxNiAzMlYzMkM3LjE2MzQ0IDMyIDAgMjQuODM2NiAwIDE2VjE2WiIgZmlsbD0iIzUyODJGRiIvPiYjeGE7PHBhdGggZD0iTTE3IDE3SDE5LjNDMTkuNyAxNy42IDIwLjMgMTggMjEgMThDMjIuMSAxOCAyMyAxNy4xIDIzIDE2QzIzIDE0LjkgMjIuMSAxNCAyMSAxNEMyMC4zIDE0IDE5LjYgMTQuNCAxOS4zIDE1SDE3VjExSDE5LjNDMTkuNyAxMS42IDIwLjMgMTIgMjEgMTJDMjIuMSAxMiAyMyAxMS4xIDIzIDEwQzIzIDguOSAyMi4xIDggMjEgOEMyMC4zIDggMTkuNiA4LjQgMTkuMyA5SDE3QzE1LjkgOSAxNSA5LjkgMTUgMTFWMTUuM0wxMCAxMlYxNUg3VjE3SDEwVjIwTDE1IDE2LjdWMjFDMTUgMjIuMSAxNS45IDIzIDE3IDIzSDE5LjNDMTkuNyAyMy42IDIwLjMgMjQgMjEgMjRDMjIuMSAyNCAyMyAyMy4xIDIzIDIyQzIzIDIwLjkgMjIuMSAyMCAyMSAyMEMyMC4zIDIwIDE5LjYgMjAuNCAxOS4zIDIxSDE3VjE3WiIgZmlsbD0id2hpdGUiLz4mI3hhOzwvc3ZnPg==;" vertex="1" parent="1">
          <mxGeometry x="1043.5700000000002" y="69" width="32" height="32" as="geometry" />
        </mxCell>
        <mxCell id="wkJ69B1qPF9ireS1vmcp-57" value="" style="shape=image;verticalLabelPosition=bottom;verticalAlign=top;imageAspect=0;aspect=fixed;image=data:image/svg+xml,PHN2ZyB4bWxucz0iaHR0cDovL3d3dy53My5vcmcvMjAwMC9zdmciIGZpbGw9Im5vbmUiIHZpZXdCb3g9IjAgMCAzMiAzMiIgaGVpZ2h0PSIzMiIgd2lkdGg9IjMyIj4mI3hhOzxyZWN0IGZpbGw9IiM1MjgyRkYiIHJ4PSIxNiIgaGVpZ2h0PSIzMiIgd2lkdGg9IjMyIi8+JiN4YTs8cGF0aCBmaWxsPSJ3aGl0ZSIgZD0iTTggMjAuMDAyVjExSDEwLjE1QzExLjE3NSAxMSAxMS45MDcgMTEuMjI4IDEyLjM0MyAxMS42ODVDMTIuNzgxIDEyLjE0MyAxMyAxMi45MDcgMTMgMTMuOTc4VjE2LjQ5OEMxMy4wMDQgMTcuODUyIDEyLjgxMiAxOC43NzMgMTIuNDI1IDE5LjI2NEMxMi4wNCAxOS43NTQgMTEuMzExIDIwLjAwMSAxMC4yNCAyMC4wMDFMOCAyMC4wMDJaTTE0IDIwLjAwMlYxMUgxNkwxNy42OTIgMTcuNTk3VjExSDE5VjIwLjAwMUgxN0wxNS4zMSAxMy4zMzlWMjAuMDAxTDE0IDIwLjAwMlpNMjAuNDU1IDE5LjQxNUMyMC4xNTIgMTkuMDI0IDIwIDE4LjM4NiAyMCAxNy41MDRWMTcuMTYySDIxLjI4OFYxNy40MjJDMjEuMjgxIDE3Ljg0NCAyMS4zMzggMTguMTYgMjEuNDU4IDE4LjM3QzIxLjU3NiAxOC41ODEgMjEuNzU4IDE4LjY4NiAyMi4wMDEgMTguNjg2QzIyLjEwNzMgMTguNjkxNyAyMi4yMTMgMTguNjY4MSAyMi4zMDY4IDE4LjYxNzhDMjIuNDAwNiAxOC41Njc2IDIyLjQ3ODkgMTguNDkyNiAyMi41MzMgMTguNDAxQzIyLjY1MSAxOC4yMTEgMjIuNzA4IDE3LjkyNSAyMi43MDggMTcuNTQxQzIyLjcwOCAxNy4yNTYgMjIuNjM4IDE3LjAxMSAyMi40OTMgMTYuODAzQzIyLjM1MiAxNi41OTcgMjIuMTA0IDE2LjM3OCAyMS43NDggMTYuMTQ3QzIxLjEyOCAxNS43NDYgMjAuNjkzIDE1LjM1MyAyMC40NDcgMTQuOTYzQzIwLjE5OSAxNC41OCAyMC4wNzUgMTQuMTAzIDIwLjA3NSAxMy41MzNDMjAuMDc1IDEyLjY4NyAyMC4yNDEgMTIuMDUzIDIwLjU3MyAxMS42MzJDMjAuOTA3IDExLjIxMSAyMS40MDcgMTEgMjIuMDc1IDExQzIyLjc2MSAxMSAyMy4yNDUgMTEuMTk2IDIzLjUyOCAxMS41ODhDMjMuNzk1IDExLjk2IDIzLjkyNCAxMi41NTggMjMuOTIxIDEzLjM4NEwyMy45MjMgMTMuNTc2VjEzLjgzNkgyMi42MzVWMTMuNTc2QzIyLjY0MSAxMy4xMTQgMjIuNTk5IDEyLjc4OCAyMi41MDggMTIuNTk3QzIyLjQxOCAxMi40MDggMjIuMjYgMTIuMzEzIDIyLjAzNSAxMi4zMTNDMjEuOTM1NCAxMi4zMDc0IDIxLjgzNjEgMTIuMzI4OCAyMS43NDc3IDEyLjM3NTJDMjEuNjU5MyAxMi40MjE1IDIxLjU4NTEgMTIuNDkwOSAyMS41MzMgMTIuNTc2QzIxLjQyMSAxMi43NTIgMjEuMzY3IDEzLjAxNSAyMS4zNjcgMTMuMzY2QzIxLjM2NyAxMy42MzggMjEuNDMyIDEzLjg3MSAyMS41NjUgMTQuMDY2QzIxLjY5MyAxNC4yNiAyMS45MjMgMTQuNDYyIDIyLjI1MiAxNC42NzJDMjIuODk5IDE1LjA5NCAyMy4zNTIgMTUuNTA1IDIzLjYxMSAxNS45MDVDMjMuODcxIDE2LjMwNiAyNCAxNi43OTcgMjQgMTcuMzhDMjQgMTguMjU0IDIzLjgzMyAxOC45MSAyMy41MDEgMTkuMzQ1QzIzLjE2OCAxOS43ODEgMjIuNjY4IDE5Ljk5OSAyMiAxOS45OTlDMjEuMjcyIDE5Ljk5OSAyMC43NTYgMTkuODA0IDIwLjQ1NSAxOS40MTVaTTExLjEgMTguMjk1QzExLjI3NiAxOC4wNTggMTEuMzY1IDE3LjYwMiAxMS4zNjUgMTYuOTI2VjEzLjk1NEMxMS4zNjUgMTMuMzQ0IDExLjI2NyAxMi45MjUgMTEuMDY4IDEyLjY5NkMxMC44NzEgMTIuNDY2IDEwLjUwOCAxMi4zNTIgOS45OCAxMi4zNTJIOS42MzZWMTguNjQ4SDEwLjA2NkMxMC41NzcgMTguNjQ4IDEwLjkyMyAxOC41MyAxMS4xIDE4LjI5NlYxOC4yOTVaIi8+JiN4YTs8L3N2Zz4=;" vertex="1" parent="1">
          <mxGeometry x="906" y="69" width="32" height="32" as="geometry" />
        </mxCell>
        <mxCell id="wkJ69B1qPF9ireS1vmcp-58" style="edgeStyle=orthogonalEdgeStyle;rounded=0;orthogonalLoop=1;jettySize=auto;html=1;entryX=-0.004;entryY=0.494;entryDx=0;entryDy=0;entryPerimeter=0;" edge="1" parent="1" source="wkJ69B1qPF9ireS1vmcp-12" target="wkJ69B1qPF9ireS1vmcp-54">
          <mxGeometry relative="1" as="geometry" />
        </mxCell>
        <mxCell id="wkJ69B1qPF9ireS1vmcp-61" style="edgeStyle=orthogonalEdgeStyle;rounded=0;orthogonalLoop=1;jettySize=auto;html=1;entryX=0.511;entryY=0.003;entryDx=0;entryDy=0;entryPerimeter=0;" edge="1" parent="1" source="wkJ69B1qPF9ireS1vmcp-12" target="wkJ69B1qPF9ireS1vmcp-38">
          <mxGeometry relative="1" as="geometry">
            <Array as="points">
              <mxPoint x="676" y="250" />
              <mxPoint x="924" y="250" />
            </Array>
          </mxGeometry>
        </mxCell>
        <mxCell id="wkJ69B1qPF9ireS1vmcp-86" value="active" style="edgeLabel;html=1;align=center;verticalAlign=middle;resizable=0;points=[];" vertex="1" connectable="0" parent="wkJ69B1qPF9ireS1vmcp-61">
          <mxGeometry x="-0.2209" y="1" relative="1" as="geometry">
            <mxPoint as="offset" />
          </mxGeometry>
        </mxCell>
        <mxCell id="wkJ69B1qPF9ireS1vmcp-62" value="&lt;div style=&quot;&quot;&gt;&lt;font face=&quot;Arial&quot;&gt;&lt;span style=&quot;font-size: 22.58px;&quot;&gt;HAProxy&lt;/span&gt;&lt;/font&gt;&lt;/div&gt;" style="verticalAlign=bottom;align=center;overflow=width;vsdxID=6;fillColor=none;gradientColor=none;strokeColor=none;spacingTop=-3;spacingBottom=-3;spacingLeft=-3;spacingRight=-3;points=[];labelBackgroundColor=none;rounded=0;html=1;whiteSpace=wrap;container=0;" vertex="1" parent="1">
          <mxGeometry x="410" y="774" width="130" height="53.21" as="geometry" />
        </mxCell>
        <mxCell id="wkJ69B1qPF9ireS1vmcp-63" value="&lt;div style=&quot;&quot;&gt;&lt;font face=&quot;Arial&quot;&gt;&lt;span style=&quot;font-size: 22.58px;&quot;&gt;HAProxy&lt;/span&gt;&lt;/font&gt;&lt;/div&gt;" style="verticalAlign=bottom;align=center;overflow=width;vsdxID=6;fillColor=none;gradientColor=none;strokeColor=none;spacingTop=-3;spacingBottom=-3;spacingLeft=-3;spacingRight=-3;points=[];labelBackgroundColor=none;rounded=0;html=1;whiteSpace=wrap;container=0;" vertex="1" parent="1">
          <mxGeometry x="930" y="772" width="130" height="53.21" as="geometry" />
        </mxCell>
        <mxCell id="wkJ69B1qPF9ireS1vmcp-70" style="edgeStyle=orthogonalEdgeStyle;rounded=0;orthogonalLoop=1;jettySize=auto;html=1;entryX=0.504;entryY=0.016;entryDx=0;entryDy=0;entryPerimeter=0;" edge="1" parent="1" source="wkJ69B1qPF9ireS1vmcp-50" target="wkJ69B1qPF9ireS1vmcp-8">
          <mxGeometry relative="1" as="geometry" />
        </mxCell>
        <mxCell id="wkJ69B1qPF9ireS1vmcp-73" style="edgeStyle=orthogonalEdgeStyle;rounded=0;orthogonalLoop=1;jettySize=auto;html=1;entryX=0.484;entryY=0.014;entryDx=0;entryDy=0;entryPerimeter=0;" edge="1" parent="1" source="wkJ69B1qPF9ireS1vmcp-51" target="wkJ69B1qPF9ireS1vmcp-28">
          <mxGeometry relative="1" as="geometry" />
        </mxCell>
        <mxCell id="wkJ69B1qPF9ireS1vmcp-78" style="edgeStyle=orthogonalEdgeStyle;rounded=0;orthogonalLoop=1;jettySize=auto;html=1;entryX=0.506;entryY=0.017;entryDx=0;entryDy=0;entryPerimeter=0;" edge="1" parent="1" source="wkJ69B1qPF9ireS1vmcp-6" target="wkJ69B1qPF9ireS1vmcp-50">
          <mxGeometry relative="1" as="geometry" />
        </mxCell>
        <mxCell id="wkJ69B1qPF9ireS1vmcp-79" style="edgeStyle=orthogonalEdgeStyle;rounded=0;orthogonalLoop=1;jettySize=auto;html=1;entryX=0.524;entryY=0.017;entryDx=0;entryDy=0;entryPerimeter=0;" edge="1" parent="1" source="wkJ69B1qPF9ireS1vmcp-26" target="wkJ69B1qPF9ireS1vmcp-51">
          <mxGeometry relative="1" as="geometry" />
        </mxCell>
        <mxCell id="wkJ69B1qPF9ireS1vmcp-80" style="edgeStyle=orthogonalEdgeStyle;rounded=0;orthogonalLoop=1;jettySize=auto;html=1;entryX=0.497;entryY=1.006;entryDx=0;entryDy=0;entryPerimeter=0;" edge="1" parent="1" source="wkJ69B1qPF9ireS1vmcp-8" target="wkJ69B1qPF9ireS1vmcp-28">
          <mxGeometry relative="1" as="geometry">
            <Array as="points">
              <mxPoint x="475" y="1056" />
              <mxPoint x="995" y="1056" />
            </Array>
          </mxGeometry>
        </mxCell>
        <mxCell id="wkJ69B1qPF9ireS1vmcp-89" value="streaming replication" style="edgeLabel;html=1;align=center;verticalAlign=middle;resizable=0;points=[];" vertex="1" connectable="0" parent="wkJ69B1qPF9ireS1vmcp-80">
          <mxGeometry x="-0.2045" y="-3" relative="1" as="geometry">
            <mxPoint as="offset" />
          </mxGeometry>
        </mxCell>
        <mxCell id="wkJ69B1qPF9ireS1vmcp-81" style="edgeStyle=orthogonalEdgeStyle;rounded=0;orthogonalLoop=1;jettySize=auto;html=1;" edge="1" parent="1">
          <mxGeometry relative="1" as="geometry">
            <mxPoint x="990" y="190" as="sourcePoint" />
            <mxPoint x="331" y="440" as="targetPoint" />
          </mxGeometry>
        </mxCell>
        <mxCell id="wkJ69B1qPF9ireS1vmcp-83" value="health check" style="edgeLabel;html=1;align=center;verticalAlign=middle;resizable=0;points=[];" vertex="1" connectable="0" parent="wkJ69B1qPF9ireS1vmcp-81">
          <mxGeometry x="-0.095" y="1" relative="1" as="geometry">
            <mxPoint x="-240" y="109" as="offset" />
          </mxGeometry>
        </mxCell>
        <mxCell id="wkJ69B1qPF9ireS1vmcp-82" style="edgeStyle=orthogonalEdgeStyle;rounded=0;orthogonalLoop=1;jettySize=auto;html=1;entryX=0.718;entryY=0.006;entryDx=0;entryDy=0;entryPerimeter=0;" edge="1" parent="1" source="wkJ69B1qPF9ireS1vmcp-54" target="wkJ69B1qPF9ireS1vmcp-38">
          <mxGeometry relative="1" as="geometry">
            <mxPoint x="990" y="440" as="targetPoint" />
          </mxGeometry>
        </mxCell>
        <mxCell id="wkJ69B1qPF9ireS1vmcp-84" value="health check" style="edgeLabel;html=1;align=center;verticalAlign=middle;resizable=0;points=[];" vertex="1" connectable="0" parent="wkJ69B1qPF9ireS1vmcp-82">
          <mxGeometry x="-0.1348" y="1" relative="1" as="geometry">
            <mxPoint x="-1" y="24" as="offset" />
          </mxGeometry>
        </mxCell>
        <mxCell id="wkJ69B1qPF9ireS1vmcp-87" style="edgeStyle=orthogonalEdgeStyle;rounded=0;orthogonalLoop=1;jettySize=auto;html=1;entryX=0.006;entryY=0.385;entryDx=0;entryDy=0;entryPerimeter=0;" edge="1" parent="1" source="wkJ69B1qPF9ireS1vmcp-62" target="wkJ69B1qPF9ireS1vmcp-28">
          <mxGeometry relative="1" as="geometry">
            <Array as="points">
              <mxPoint x="670" y="780" />
              <mxPoint x="670" y="970" />
              <mxPoint x="931" y="970" />
            </Array>
          </mxGeometry>
        </mxCell>
        <mxCell id="wkJ69B1qPF9ireS1vmcp-88" style="edgeStyle=orthogonalEdgeStyle;rounded=0;orthogonalLoop=1;jettySize=auto;html=1;entryX=0.993;entryY=0.266;entryDx=0;entryDy=0;entryPerimeter=0;" edge="1" parent="1" source="wkJ69B1qPF9ireS1vmcp-51" target="wkJ69B1qPF9ireS1vmcp-8">
          <mxGeometry relative="1" as="geometry">
            <Array as="points">
              <mxPoint x="700" y="760" />
              <mxPoint x="700" y="958" />
            </Array>
          </mxGeometry>
        </mxCell>
        <mxCell id="wkJ69B1qPF9ireS1vmcp-91" value="&lt;div style=&quot;font-size: 1px&quot;&gt;&lt;font style=&quot;font-size:22.58px;font-family:Arial;color:#000000;direction:ltr;letter-spacing:0px;line-height:120%;opacity:1&quot;&gt;Backup server&lt;br&gt;&lt;/font&gt;&lt;/div&gt;" style="verticalAlign=middle;align=center;overflow=width;vsdxID=5;fillColor=#fff2bf;gradientColor=none;shape=stencil(vVNBDsIgEHwNRwxCjHqu+g9iaUtEaBa09fdSwdpi9dBDb8vOwOwsGcQyW/FaIEqsA3MRjcxdhdgBUSp1JUA6XyF2RCwrDIgSzE3n4VzzjtlVV3PvXmjDPdLdoOQRTrvtavNqnAKXw9mDELkBIhDJaxrJZIy/YRLfbjFvpcVgHHfS6JGu4lAK7GVwoXg5gmwjRP3VjoMpqQcm9tPKs0z0Y6crWcBHqt0PN8tJspXFfmNKdpaBH8tYwML/VPjiE6dCKhXSOMTT+PlWiC47PgE=);strokeColor=none;spacingTop=-3;spacingBottom=-3;spacingLeft=-3;spacingRight=-3;points=[];labelBackgroundColor=none;rounded=0;html=1;whiteSpace=wrap;" vertex="1" parent="1">
          <mxGeometry x="530" y="1210" width="211" height="84" as="geometry" />
        </mxCell>
        <mxCell id="wkJ69B1qPF9ireS1vmcp-95" style="edgeStyle=orthogonalEdgeStyle;rounded=0;orthogonalLoop=1;jettySize=auto;html=1;entryX=1;entryY=0.571;entryDx=0;entryDy=0;entryPerimeter=0;" edge="1" parent="1" source="wkJ69B1qPF9ireS1vmcp-28" target="wkJ69B1qPF9ireS1vmcp-91">
          <mxGeometry relative="1" as="geometry">
            <Array as="points">
              <mxPoint x="780" y="983" />
              <mxPoint x="780" y="1258" />
            </Array>
          </mxGeometry>
        </mxCell>
      </root>
    </mxGraphModel>
  </diagram>
</mxfile>
